<svg height="512pt" viewBox="0 0 512 512.00014" width="512pt" xmlns="http://www.w3.org/2000/svg"><path fill="#aa8453" d="m38.050781 512c3.726563.019531 7.023438-2.410156 8.105469-5.972656l40.789062-130.5625h26.285157l6.484375 20.910156-42.324219 103.847656c-1.070313 2.640625-.753906 5.636719.835937 8 1.589844 2.359375 4.25 3.777344 7.097657 3.777344h34.132812c3.464844-.019531 6.585938-2.101562 7.9375-5.289062l15.1875-37.292969 11.4375 36.609375c1.082031 3.5625 4.378907 5.992187 8.105469 5.972656h17.066406c2.539063.011719 4.953125-1.113281 6.570313-3.070312 1.628906-1.941407 2.289062-4.515626 1.792969-7l-18.347657-97.875 49.835938-122.453126h73.898437l49.835938 122.367188-18.347656 97.960938c-.496094 2.484374.164062 5.058593 1.792968 7 1.617188 1.957031 4.027344 3.082031 6.570313 3.070312h17.066406c3.726563.019531 7.023437-2.410156 8.105469-5.972656l11.433594-36.609375 15.191406 37.292969c1.351562 3.1875 4.46875 5.269531 7.933594 5.289062h34.136718c2.84375 0 5.503906-1.417969 7.097656-3.777344 1.589844-2.363281 1.902344-5.359375.835938-8l-42.3125-103.8125 6.523438-20.945312h26.234374l40.789063 130.5625c1.082031 3.5625 4.378906 5.992187 8.105469 5.972656h17.066406c2.539062.011719 4.953125-1.113281 6.570312-3.070312 1.628907-1.941407 2.289063-4.515626 1.792969-7l-24.40625-129.960938c10.277344-5.066406 17.351563-14.925781 18.859375-26.285156l2.472656-19.625c.15625-.503906.269532-1.015625.34375-1.535156.066407-.394532.09375-.796876.085938-1.195313v-.339844l12.96875-103.765625.171875-1.195312 2.046875-16.042969c.410156-3.03125-.835938-6.054687-3.269531-7.910156-2.433594-1.859375-5.675781-2.265625-8.492188-1.074219-2.816406 1.195312-4.777343 3.8125-5.132812 6.851562l-1.109375 8.703126c-18.171875-1.71875-34.464844 11.1875-36.949219 29.269531l-7.167969 54.273437c-2.589844 18.523438 10.25 35.667969 28.757813 38.398438l-1.625 13.054687c-1.125 8.480469-8.34375 14.820313-16.894531 14.847657h-4.011719c-4.054688-19.867188-21.535157-34.136719-41.8125-34.132813h-42.667969c-2.773438-.003906-5.546875.25-8.277344.769531l-17.746094-43.433594h72.617188c9.414062-.027343 17.039062-7.652343 17.066406-17.066406v-17.070312c-.027344-9.414063-7.652344-17.039063-17.066406-17.066406h-324.265625c-9.414063.027343-17.039063 7.652343-17.066406 17.066406v17.070312c.027343 9.414063 7.652343 17.039063 17.066406 17.066406h72.617187l-17.664062 43.433594h-.085938c-2.726562-.519531-5.5-.773437-8.277343-.769531h-42.664063c-20.28125-.003906-37.757812 14.265625-41.816406 34.132813h-4.007812c-8.554688-.027344-15.769532-6.367188-16.898438-14.847657l-1.621094-13.054687c8.855469-1.238282 16.84375-5.972656 22.1875-13.140625 5.503906-7.15625 7.875-16.238281 6.570313-25.175781l-7.167969-54.441407c-2.535156-18.039062-18.8125-30.894531-36.949219-29.183593l-1.109375-8.703126c-.355468-3.039062-2.316406-5.65625-5.132812-6.851562-2.816406-1.191406-6.058594-.785156-8.492188 1.074219-2.433594 1.855469-3.679687 4.878906-3.269531 7.910156l2.132813 17.238281 13.054687 103.765625v.339844c-.011719.398437.019531.800781.085937 1.195313.0625.492187.179688.980468.339844 1.449218v.085938l2.476563 19.710937c1.507812 11.339844 8.585937 21.167969 18.859375 26.199219l-24.40625 129.960938c-.496094 2.484374.164062 5.058593 1.792968 7 1.617188 1.957031 4.03125 3.082031 6.570313 3.070312zm289.023438-230.398438 22.953125 56.320313c0 .082031.085937.167969.085937.253906l.085938.257813.171875.511718.253906.425782.085938.171875.085937.167969.171875.425781 11.691406 28.589843c.074219.324219.1875.640626.339844.9375l.085938.257813.085937.253906v.171875l11.773437 28.414063v.085937c0 .085938.085938.257813.085938.339844l.085938.257812.511718 1.28125 38.316406 94.207032h-15.703124l-21.675782-53.332032-.597656-1.367187-16.210938-39.765625v-.085938c0-.085937-.085937-.167968-.085937-.253906l-.511719-1.109375-.085937-.171875-47.699219-117.246094zm-190.207031 117.84375 11.773437-28.757812.171875-.511719 12.714844-31.144531v-.085938l23.382812-57.34375h15.699219l-48.125 118.183594-16.472656 40.449219-.597657 1.367187-21.671874 53.332032h-15.703126l38.316407-94.207032zm0 0"/><path fill="#aa8453" d="m187.726562 110.933594h34.132813c0 18.851562 15.28125 34.132812 34.132813 34.132812 18.851562 0 34.132812-15.28125 34.132812-34.132812h34.132812c3.601563.019531 6.816407-2.242188 8.023438-5.632813 1.195312-3.382812.179688-7.152343-2.5625-9.472656l-48.125-40.105469v-21.589844c-.03125-9.414062-7.65625-17.039062-17.070312-17.066406v-8.53125c0-4.714844-3.820313-8.535156-8.53125-8.535156-4.714844 0-8.535157 3.820312-8.535157 8.535156v8.53125c-9.414062.027344-17.039062 7.652344-17.066406 17.066406v21.589844l-48.125 40.105469c-2.742187 2.320313-3.761719 6.089844-2.5625 9.472656 1.207031 3.390625 4.421875 5.652344 8.023437 5.632813zm59.730469-76.800782h17.066407v17.066407h-17.066407zm25.601563 76.800782c0 9.425781-7.640625 17.066406-17.066406 17.066406-9.425782 0-17.066407-7.640625-17.066407-17.066406zm0 0"/></svg>