<svg id="Bahan" viewBox="0 0 64 64" xmlns="http://www.w3.org/2000/svg"><path fill="#aa8453" d="m20.21 43.54a.49.49 0 0 0 0 .17v15.47a1 1 0 0 1 -1 1h-8.5a1 1 0 0 1 -1-1v-15.47a.49.49 0 0 0 0-.17l1.19-6.81a1 1 0 0 1 1-.83h6.1a1 1 0 0 1 1 .83zm34.08-39.22v2.36a1 1 0 0 1 -.83 1l-7.58 1.32c1.5.44 6.21 1.85 5 3.59a1 1 0 0 1 -1.4.2c-2.1-1.57-5.4-2.42-9.79-2.57v3.95a11 11 0 0 1 8.19 10.62v33.21a2.74 2.74 0 0 1 -2.74 2.73h-17.79a2.74 2.74 0 0 1 -2.74-2.73v-33.26a11 11 0 0 1 8.19-10.62v-3.66a20.26 20.26 0 0 0 -16.8 19.97v4.57h-2v-4.57a22.24 22.24 0 0 1 18.91-22 3.47 3.47 0 0 1 2.39-2.59v-1.52a1 1 0 0 1 1-1h17a1 1 0 0 1 .99 1zm-10.64 26.62a1 1 0 0 0 -1-1h-12.78a1 1 0 0 0 -1 1v11.54a1 1 0 0 0 1 1h12.78a1 1 0 0 0 1-1zm-.08-4.79a6.71 6.71 0 0 0 -7.41-6.52 1 1 0 0 0 .2 2 4.77 4.77 0 0 1 5.21 4.58 1 1 0 0 0 2-.06zm-7.31-15.55a1.46 1.46 0 0 0 0-2.92 1.46 1.46 0 0 0 0 2.92zm-1.46 3.18h2.11.81v-1.51a3.39 3.39 0 0 1 -2.92 0zm-3.93 27.7h10.78v-9.54h-10.78z"/></svg>