<svg height="512" viewBox="0 0 48 48" width="512" xmlns="http://www.w3.org/2000/svg"><g id="first_aid_kit" fill="rgb(0,0,0)" data-name="first aid kit"><path fill="#aa8453" d="m34 11h4v4h-4z"/><path fill="#aa8453" d="m26 23v-3h-4v3a1 1 0 0 1 -1 1h-3v4h3a1 1 0 0 1 1 1v3h4v-3a1 1 0 0 1 1-1h3v-4h-3a1 1 0 0 1 -1-1z"/><path fill="#aa8453" d="m10 11h4v4h-4z"/><path fill="#aa8453" d="m41 11h-1v5a1 1 0 0 1 -1 1h-6a1 1 0 0 1 -1-1v-5h-1v-1a3 3 0 0 0 -3-3h-8a3 3 0 0 0 -3 3v1h-1v5a1 1 0 0 1 -1 1h-6a1 1 0 0 1 -1-1v-5h-1a5 5 0 0 0 -5 5v20a5 5 0 0 0 5 5h34a5 5 0 0 0 5-5v-20a5 5 0 0 0 -5-5zm-33 25h-2v-10h2zm0-12h-2v-3h2zm11-14a1 1 0 0 1 1-1h8a1 1 0 0 1 1 1v1h-10zm13 19a1 1 0 0 1 -1 1h-3v3a1 1 0 0 1 -1 1h-6a1 1 0 0 1 -1-1v-3h-3a1 1 0 0 1 -1-1v-6a1 1 0 0 1 1-1h3v-3a1 1 0 0 1 1-1h6a1 1 0 0 1 1 1v3h3a1 1 0 0 1 1 1z"/></g></svg>