<svg viewBox="0 0 24 24" xmlns="http://www.w3.org/2000/svg"><g id="Fridge_2" fill="#303c42" data-name="Fridge 2"><path fill="#aa8453" d="m8.5 0h-4.5a2 2 0 0 0 -2 2v20a2 2 0 0 0 2 2h4.5a.5.5 0 0 0 .5-.5v-23a.5.5 0 0 0 -.5-.5zm-.5 16.5a.5.5 0 0 1 -1 0v-9a.5.5 0 0 1 1 0z"/><path fill="#aa8453" d="m20 0h-9.5a.5.5 0 0 0 -.5.5v23a.5.5 0 0 0 .5.5h9.5a2 2 0 0 0 2-2v-20a2 2 0 0 0 -2-2zm-8 16.5a.5.5 0 0 1 -1 0v-9a.5.5 0 0 1 1 0zm7-2a.5.5 0 0 1 -.5.5h-4a.5.5 0 0 1 -.5-.5v-5a.5.5 0 0 1 .5-.5h1a.5.5 0 0 1 .5.5v1a.5.5 0 0 0 1 0v-1a.5.5 0 0 1 .5-.5h1a.5.5 0 0 1 .5.5z"/></g></svg>