<svg id="Capa_1" enable-background="new 0 0 512 512" height="512" viewBox="0 0 512 512" width="512" xmlns="http://www.w3.org/2000/svg"><g fill="#aa8453"><path d="m245.395 124.395c-5.859 5.859-5.859 15.366 0 21.211 5.859 5.859 15.351 5.86 21.211 0 25.4-25.43 25.4-55.781 0-81.211-13.77-13.77-13.77-25.02 0-38.789 5.859-5.859 5.859-15.366 0-21.211-5.859-5.859-15.352-5.859-21.211 0-25.4 25.43-25.4 55.781 0 81.211 13.769 13.769 13.769 25.019 0 38.789z"/><path d="m395.395 124.395c-5.859 5.859-5.859 15.366 0 21.211 5.859 5.859 15.351 5.86 21.211 0 25.4-25.43 25.4-55.781 0-81.211-13.77-13.77-13.77-25.02 0-38.789 5.859-5.859 5.859-15.366 0-21.211-5.859-5.859-15.352-5.859-21.211 0-25.4 25.43-25.4 55.781 0 81.211 13.769 13.769 13.769 25.019 0 38.789z"/><path d="m95.395 124.395c-5.859 5.859-5.859 15.366 0 21.211 5.859 5.859 15.351 5.86 21.211 0 25.4-25.43 25.4-55.781 0-81.211-13.77-13.77-13.77-25.02 0-38.789 5.859-5.859 5.859-15.366 0-21.211-5.859-5.859-15.352-5.859-21.211 0-25.4 25.43-25.4 55.781 0 81.211 13.769 13.769 13.769 25.019 0 38.789z"/><path d="m331 104.839c.059 6.035-3.428 12.612-10.371 19.556-5.859 5.859-5.859 15.366 0 21.211 5.859 5.859 15.351 5.86 21.211 0 12.861-12.861 19.307-26.66 19.16-41.045-.146-14.077-6.592-27.598-19.16-40.166-13.77-13.77-13.77-25.02 0-38.789 5.859-5.859 5.859-15.366 0-21.211-5.859-5.859-15.352-5.859-21.211 0-25.4 25.43-25.4 55.781 0 81.211 6.826 6.826 10.312 13.3 10.371 19.233z"/><path d="m170.16 124.395c-5.859 5.859-5.859 15.366 0 21.211 5.859 5.859 15.351 5.86 21.211 0 25.4-25.43 25.4-55.781 0-81.211-6.943-6.943-10.43-13.521-10.371-19.556.059-5.933 3.545-12.407 10.371-19.233 5.859-5.845 5.859-15.352 0-21.211s-15.352-5.859-21.211 0c-12.568 12.568-19.014 26.088-19.16 40.166-.146 14.385 6.299 28.184 19.16 41.045 13.77 13.769 13.77 25.019 0 38.789z"/><path d="m497 242h-16v-15c0-24.814-20.186-45-45-45s-45 20.186-45 45v15h-30v-15c0-24.814-20.186-45-45-45s-45 20.186-45 45v15h-30v-15c0-24.814-20.186-45-45-45s-45 20.186-45 45v15h-30v-15c0-24.814-20.186-45-45-45s-45 20.186-45 45v15h-16c-8.291 0-15 6.709-15 15s6.709 15 15 15h16v195c0 24.814 20.186 45 45 45s45-20.186 45-45v-195h30v195c0 24.814 20.186 45 45 45s45-20.186 45-45v-195h30v195c0 24.814 20.186 45 45 45s45-20.186 45-45v-195h30v195c0 24.814 20.186 45 45 45s45-20.186 45-45v-195h16c8.291 0 15-6.709 15-15s-6.709-15-15-15z"/></g></svg>