<svg id="bold" enable-background="new 0 0 32 32" viewBox="0 0 32 32" xmlns="http://www.w3.org/2000/svg"><g fill="#aa8453"><path d="m29 10h-4c-.6-1.1-1.2-2.3-2-3.3v-1.7c0-2.8-2.2-5-5-5h-5c-2.8 0-5 2.2-5 5v1h-6c-1.1 0-2 .9-2 2 0 .5.2.9.4 1.2l4 5c-1.4 5.3-1.2 10.9-.5 15.8h-.9c-.6 0-1 .4-1 1s.4 1 1 1h25c.6 0 1-.4 1-1s-.4-1-1-1h-.9c.2-1.7.4-3.5.5-5.3l2.7-1.3c1-.5 1.7-1.6 1.7-2.7v-7.7c0-1.7-1.3-3-3-3zm-23.9 1.9-3.1-3.9h5.1c-.8 1.3-1.4 2.6-2 3.9zm4.9-6.9c0-1.7 1.3-3 3-3h5c1.7 0 3 1.3 3 3v1h-11zm12 21c0 1.1-.9 2-2 2h-1c-.6 0-1-.4-1-1s.4-1 1-1h1v-5h-1c-.6 0-1-.4-1-1s.4-1 1-1h1v-5h-1c-.6 0-1-.4-1-1s.4-1 1-1h1c1.1 0 2 .9 2 2zm8-5.3c0 .4-.2.7-.6.9l-1.8.8c0-3.5-.5-7.1-1.8-10.5h3.2c.6 0 1 .4 1 1z"/></g></svg>